<svg width="936" height="845" viewBox="0 0 702 633.75" xmlns="http://www.w3.org/2000/svg" xmlns:xlink="http://www.w3.org/1999/xlink">
<g id="graph0" class="graph" transform="translate(-6.105010986328125,479.48500061035156) scale(1)">
<title>finite_state_machine</title>
<polygon fill="white" stroke="none" points="-4,4 -4,-329.22 718.21,-329.22 718.21,4 -4,4"/>
<!-- Idle -->
<g id="node1" class="node">
<title>Idle</title>
<ellipse fill="none" stroke="black" cx="30.05" cy="-163" rx="26.05" ry="26.05"/>
<ellipse fill="none" stroke="black" cx="30.05" cy="-163" rx="30.05" ry="30.05"/>
<text text-anchor="middle" x="30.05" y="-158.8" font-family="Helvetica,Arial,sans-serif" font-size="14.00">Idle</text>
</g>
<!-- Stop -->
<g id="node2" class="node">
<title>Stop</title>
<ellipse fill="none" stroke="black" cx="681.46" cy="-236" rx="28.75" ry="28.75"/>
<ellipse fill="none" stroke="black" cx="681.46" cy="-236" rx="32.75" ry="32.75"/>
<text text-anchor="middle" x="681.46" y="-231.8" font-family="Helvetica,Arial,sans-serif" font-size="14.00">Stop</text>
</g>
<!-- Idle&#45;&gt;Stop -->
<g id="edge3" class="edge">
<title>Idle-&gt;Stop</title>
<path fill="none" stroke="black" d="M45.25,-189.25C61.11,-215.52 89.49,-254.34 126.44,-271 307.41,-352.61 375.17,-279.12 573.04,-263 598.72,-260.91 605.75,-263.41 630.71,-257 634.05,-256.14 637.46,-255.09 640.85,-253.93"/>
<polygon fill="black" stroke="black" points="641.96,-257.26 650.08,-250.45 639.49,-250.71 641.96,-257.26"/>
<text text-anchor="middle" x="367.55" y="-312.62" font-family="Helvetica,Arial,sans-serif" font-size="14.00">is_stop</text>
</g>
<!-- Go -->
<g id="node3" class="node">
<title>Go</title>
<ellipse fill="none" stroke="black" cx="203.01" cy="-163" rx="27" ry="18"/>
<text text-anchor="middle" x="203.01" y="-158.8" font-family="Helvetica,Arial,sans-serif" font-size="14.00">Go</text>
</g>
<!-- Idle&#45;&gt;Go -->
<g id="edge1" class="edge">
<title>Idle-&gt;Go</title>
<path fill="none" stroke="black" d="M60.44,-163C89.14,-163 132.94,-163 164.21,-163"/>
<polygon fill="black" stroke="black" points="164.02,-166.5 174.02,-163 164.02,-159.5 164.02,-166.5"/>
<text text-anchor="middle" x="93.27" y="-167.2" font-family="Helvetica,Arial,sans-serif" font-size="14.00">is_go</text>
</g>
<!-- Turn -->
<g id="node4" class="node">
<title>Turn</title>
<ellipse fill="none" stroke="black" cx="514.28" cy="-236" rx="29.81" ry="18"/>
<text text-anchor="middle" x="514.28" y="-231.8" font-family="Helvetica,Arial,sans-serif" font-size="14.00">Turn</text>
</g>
<!-- Idle&#45;&gt;Turn -->
<g id="edge2" class="edge">
<title>Idle-&gt;Turn</title>
<path fill="none" stroke="black" d="M57.5,-175.52C104.51,-196.96 206.27,-239.79 297.58,-254 359.04,-263.56 375.75,-261.24 437.52,-254 450.13,-252.52 463.69,-249.7 475.81,-246.73"/>
<polygon fill="black" stroke="black" points="476.63,-250.13 485.43,-244.24 474.88,-243.35 476.63,-250.13"/>
<text text-anchor="middle" x="203.01" y="-254.53" font-family="Helvetica,Arial,sans-serif" font-size="14.00">is_turn</text>
</g>
<!-- Go&#45;&gt;Stop -->
<g id="edge5" class="edge">
<title>Go-&gt;Stop</title>
<path fill="none" stroke="black" d="M230.46,-162.05C291.75,-160.5 447.86,-160.31 573.04,-192.2 596.36,-198.14 621.32,-208.08 641.31,-216.99"/>
<polygon fill="black" stroke="black" points="639.63,-220.08 650.18,-221.04 642.54,-213.71 639.63,-220.08"/>
<text text-anchor="middle" x="514.28" y="-196.4" font-family="Helvetica,Arial,sans-serif" font-size="14.00">is_stop</text>
</g>
<!-- Go&#45;&gt;Turn -->
<g id="edge4" class="edge">
<title>Go-&gt;Turn</title>
<path fill="none" stroke="black" d="M222.37,-175.9C240.56,-187.95 269.66,-205.35 297.58,-214 356.7,-232.31 428.86,-236.17 472.92,-236.6"/>
<polygon fill="black" stroke="black" points="472.77,-240.1 482.78,-236.63 472.79,-233.1 472.77,-240.1"/>
<text text-anchor="middle" x="367.55" y="-239.64" font-family="Helvetica,Arial,sans-serif" font-size="14.00">is_turn</text>
</g>
<!-- TrafficLight -->
<g id="node5" class="node">
<title>TrafficLight</title>
<ellipse fill="none" stroke="black" cx="514.28" cy="-97" rx="58.76" ry="18"/>
<text text-anchor="middle" x="514.28" y="-92.8" font-family="Helvetica,Arial,sans-serif" font-size="14.00">TrafficLight</text>
</g>
<!-- Go&#45;&gt;TrafficLight -->
<g id="edge6" class="edge">
<title>Go-&gt;TrafficLight</title>
<path fill="none" stroke="black" d="M227.17,-154.25C245.93,-147.44 273.16,-138.17 297.58,-132.2 305.04,-130.38 389.36,-116.78 450.32,-107.03"/>
<polygon fill="black" stroke="black" points="450.59,-110.53 459.91,-105.5 449.48,-103.62 450.59,-110.53"/>
<text text-anchor="middle" x="367.55" y="-136.4" font-family="Helvetica,Arial,sans-serif" font-size="14.00">detect_traffic_lights(red)</text>
</g>
<!-- Obstacle -->
<g id="node6" class="node">
<title>Obstacle</title>
<ellipse fill="none" stroke="black" cx="514.28" cy="-18" rx="44.82" ry="18"/>
<text text-anchor="middle" x="514.28" y="-13.8" font-family="Helvetica,Arial,sans-serif" font-size="14.00">Obstacle</text>
</g>
<!-- Go&#45;&gt;Obstacle -->
<g id="edge7" class="edge">
<title>Go-&gt;Obstacle</title>
<path fill="none" stroke="black" d="M219.04,-148.38C236.6,-131.98 267.15,-105.56 297.58,-89.2 351.05,-60.45 418.22,-40.53 463.27,-29.22"/>
<polygon fill="black" stroke="black" points="463.88,-32.67 472.75,-26.89 462.21,-25.87 463.88,-32.67"/>
<text text-anchor="middle" x="367.55" y="-93.4" font-family="Helvetica,Arial,sans-serif" font-size="14.00">detect_obstacle</text>
</g>
<!-- Turn&#45;&gt;Stop -->
<g id="edge9" class="edge">
<title>Turn-&gt;Stop</title>
<path fill="none" stroke="black" d="M544.43,-236C570.18,-236 608.09,-236 637.35,-236"/>
<polygon fill="black" stroke="black" points="636.98,-239.5 646.98,-236 636.98,-232.5 636.98,-239.5"/>
<text text-anchor="middle" x="610.87" y="-240.2" font-family="Helvetica,Arial,sans-serif" font-size="14.00">is_stop</text>
</g>
<!-- Turn&#45;&gt;Go -->
<g id="edge8" class="edge">
<title>Turn-&gt;Go</title>
<path fill="none" stroke="black" d="M494,-222.33C479.25,-212.58 458.01,-200.02 437.52,-193.2 428.32,-190.14 304.54,-175.03 241.04,-167.41"/>
<polygon fill="black" stroke="black" points="241.77,-163.98 231.43,-166.26 240.94,-170.93 241.77,-163.98"/>
<text text-anchor="middle" x="367.55" y="-197.4" font-family="Helvetica,Arial,sans-serif" font-size="14.00">is_go</text>
</g>
<!-- TrafficLight&#45;&gt;Idle -->
<g id="edge11" class="edge">
<title>TrafficLight-&gt;Idle</title>
<path fill="none" stroke="black" d="M477.64,-82.65C465.16,-78.32 450.92,-74.15 437.52,-72 376.11,-62.13 359.21,-63.66 297.58,-72 219.39,-82.58 200.56,-92.16 126.44,-119.2 106.59,-126.44 85.16,-136.11 67.64,-144.52"/>
<polygon fill="black" stroke="black" points="66.11,-141.37 58.65,-148.89 69.18,-147.66 66.11,-141.37"/>
<text text-anchor="middle" x="203.01" y="-123.4" font-family="Helvetica,Arial,sans-serif" font-size="14.00">detect_traffic_lights(green)</text>
</g>
<!-- Obstacle&#45;&gt;Idle -->
<g id="edge10" class="edge">
<title>Obstacle-&gt;Idle</title>
<path fill="none" stroke="black" d="M471.28,-12.26C397.13,-4.14 240.13,3.86 126.44,-54.2 94.44,-70.54 68.43,-102.58 51.69,-127.68"/>
<polygon fill="black" stroke="black" points="48.82,-125.68 46.35,-135.98 54.7,-129.47 48.82,-125.68"/>
<text text-anchor="middle" x="203.01" y="-58.4" font-family="Helvetica,Arial,sans-serif" font-size="14.00">!detect_obstacle</text>
</g>
</g>
</svg>