<svg width="936" height="845" viewBox="0 0 702 633.75" xmlns="http://www.w3.org/2000/svg" xmlns:xlink="http://www.w3.org/1999/xlink">
<g id="graph0" class="graph" transform="translate(65.95001220703125,459.5950012207031) scale(1)">
<title>finite_state_machine</title>
<polygon fill="white" stroke="none" points="-4,4 -4,-270.72 620.27,-270.72 620.27,4 -4,4"/>
<!-- 0 -->
<g id="node1" class="node">
<title>Idle</title>
<ellipse fill="none" stroke="black" cx="30.05" cy="-147" rx="26.05" ry="26.05"/>
<ellipse fill="none" stroke="black" cx="30.05" cy="-147" rx="30.05" ry="30.05"/>
<text text-anchor="middle" x="30.05" y="-142.8" font-family="Helvetica,Arial,sans-serif" font-size="14.00">Idle</text>
</g>
<!-- 2 -->
<g id="node3" class="node">
<title>Turn</title>
<ellipse fill="none" stroke="black" cx="416.34" cy="-222" rx="29.81" ry="18"/>
<text text-anchor="middle" x="416.34" y="-217.8" font-family="Helvetica,Arial,sans-serif" font-size="14.00">Turn</text>
</g>
<!-- Idle&#45;&gt;Tyr -->
<g id="edge1" class="edge">
<title>Idle-&gt;Turn</title>
<path fill="none" stroke="black" d="M57.63,-159.73C64.23,-162.65 71.36,-165.6 78.1,-168 152.06,-194.3 171.07,-201.83 248.62,-214 291.38,-220.71 341.01,-222.32 374.93,-222.49"/>
<polygon fill="black" stroke="black" points="374.72,-225.99 384.72,-222.49 374.72,-218.99 374.72,-225.99"/>
<text text-anchor="middle" x="178.53" y="-215.05" font-family="Helvetica,Arial,sans-serif" font-size="14.00">is_turn</text>
</g>
<!-- Stop -->
<g id="node4" class="node">
<title>Go</title>
<ellipse fill="none" stroke="black" cx="178.53" cy="-147" rx="27" ry="18"/>
<text text-anchor="middle" x="178.53" y="-142.8" font-family="Helvetica,Arial,sans-serif" font-size="14.00">Go</text>
</g>
<!-- Idle&#45;&gt;Go -->
<g id="edge2" class="edge">
<title>Idle-&gt;Go</title>
<path fill="none" stroke="black" d="M60.34,-147C83.16,-147 115,-147 139.74,-147"/>
<polygon fill="black" stroke="black" points="139.73,-150.5 149.73,-147 139.73,-143.5 139.73,-150.5"/>
<text text-anchor="middle" x="93.27" y="-151.2" font-family="Helvetica,Arial,sans-serif" font-size="14.00">is_go</text>
</g>
<!-- Stop -->
<g id="node2" class="node">
<title>Stop</title>
<ellipse fill="none" stroke="black" cx="583.53" cy="-179" rx="28.75" ry="28.75"/>
<ellipse fill="none" stroke="black" cx="583.53" cy="-179" rx="32.75" ry="32.75"/>
<text text-anchor="middle" x="583.53" y="-174.8" font-family="Helvetica,Arial,sans-serif" font-size="14.00">Stop</text>
</g>
<!-- Sto -->
<g id="edge3" class="edge">
<title>Turn-&gt;Idle</title>
<path fill="none" stroke="black" d="M388.72,-229.57C336.42,-243.04 217.42,-266.66 126.44,-232 98.58,-221.39 73.68,-198.49 56.31,-179.13"/>
<polygon fill="black" stroke="black" points="59.06,-176.95 49.86,-171.68 53.76,-181.53 59.06,-176.95"/>
<text text-anchor="middle" x="178.53" y="-254.12" font-family="Helvetica,Arial,sans-serif" font-size="14.00">turn_done</text>
</g>
<!-- Turn&#45;&gt;Stop -->
<g id="edge4" class="edge">
<title>Turn-&gt;Stop</title>
<path fill="none" stroke="black" d="M444.25,-215C470.27,-208.22 510.1,-197.85 540.34,-189.98"/>
<polygon fill="black" stroke="black" points="541.15,-193.39 549.94,-187.48 539.38,-186.61 541.15,-193.39"/>
<text text-anchor="middle" x="512.94" y="-205.99" font-family="Helvetica,Arial,sans-serif" font-size="14.00">is_stop</text>
</g>
<!-- Tu -->
<g id="edge6" class="edge">
<title>Go-&gt;Stop</title>
<path fill="none" stroke="black" d="M205.66,-149.07C273.39,-154.45 455.17,-168.89 539.03,-175.55"/>
<polygon fill="black" stroke="black" points="538.68,-179.03 548.93,-176.33 539.23,-172.05 538.68,-179.03"/>
<text text-anchor="middle" x="416.34" y="-174.43" font-family="Helvetica,Arial,sans-serif" font-size="14.00">is_stop</text>
</g>
<!-- s -->
<g id="edge5" class="edge">
<title>Go-&gt;Turn</title>
<path fill="none" stroke="black" d="M201.99,-156.59C215.38,-162.1 232.8,-168.91 248.62,-174 288.34,-186.77 299.52,-185.55 339.58,-197.2 352.5,-200.96 366.54,-205.44 378.98,-209.55"/>
<polygon fill="black" stroke="black" points="377.85,-212.86 388.44,-212.71 380.07,-206.22 377.85,-212.86"/>
<text text-anchor="middle" x="294.1" y="-201.4" font-family="Helvetica,Arial,sans-serif" font-size="14.00">is_turn</text>
</g>
<!-- O -->
<g id="node5" class="node">
<title>Obstacle</title>
<ellipse fill="none" stroke="black" cx="416.34" cy="-97" rx="44.82" ry="18"/>
<text text-anchor="middle" x="416.34" y="-92.8" font-family="Helvetica,Arial,sans-serif" font-size="14.00">Obstacle</text>
</g>
<!-- Go&#45;&gt;O -->
<g id="edge7" class="edge">
<title>Go-&gt;Obstacle</title>
<path fill="none" stroke="black" d="M204.79,-141.57C217.87,-138.76 234.1,-135.29 248.62,-132.2 287.57,-123.92 331.67,-114.61 364.72,-107.65"/>
<polygon fill="black" stroke="black" points="365.38,-111.09 374.44,-105.6 363.94,-104.24 365.38,-111.09"/>
<text text-anchor="middle" x="294.1" y="-136.4" font-family="Helvetica,Arial,sans-serif" font-size="14.00">detect_obstacle</text>
</g>
<!-- Traffic -->
<g id="node6" class="node">
<title>TrafficLight</title>
<ellipse fill="none" stroke="black" cx="416.34" cy="-18" rx="58.76" ry="18"/>
<text text-anchor="middle" x="416.34" y="-13.8" font-family="Helvetica,Arial,sans-serif" font-size="14.00">TrafficLight</text>
</g>
<!-- Go&#45;&gt;Traffic -->
<g id="edge8" class="edge">
<title>Go-&gt;TrafficLight</title>
<path fill="none" stroke="black" d="M195.42,-132.48C208.9,-120.64 229.11,-104.02 248.62,-92.2 286.4,-69.32 332.47,-49.35 366.61,-35.91"/>
<polygon fill="black" stroke="black" points="367.78,-39.21 375.83,-32.33 365.24,-32.69 367.78,-39.21"/>
<text text-anchor="middle" x="294.1" y="-96.4" font-family="Helvetica,Arial,sans-serif" font-size="14.00">detect_red_light</text>
</g>
<!-- Obstacle&#45;&gt;Idle -->
<g id="edge9" class="edge">
<title>Obstacle-&gt;Idle</title>
<path fill="none" stroke="black" d="M384.2,-84.24C370.73,-79.37 354.63,-74.42 339.58,-72 299.67,-65.58 288.73,-66.96 248.62,-72 193.01,-78.99 179.27,-84.5 126.44,-103.2 106.33,-110.32 84.68,-120.08 67.09,-128.58"/>
<polygon fill="black" stroke="black" points="66.04,-125.2 58.6,-132.75 69.12,-131.48 66.04,-125.2"/>
<text text-anchor="middle" x="178.53" y="-107.4" font-family="Helvetica,Arial,sans-serif" font-size="14.00">!detect_obstacle</text>
</g>
<!-- TrafficLight&#45;&gt;Idle -->
<g id="edge10" class="edge">
<title>TrafficLight-&gt;Idle</title>
<path fill="none" stroke="black" d="M358.06,-14.73C297.52,-13.58 200.7,-18.5 126.44,-54.2 98.14,-67.8 73.01,-93.11 55.65,-113.87"/>
<polygon fill="black" stroke="black" points="53,-111.58 49.43,-121.56 58.44,-115.99 53,-111.58"/>
<text text-anchor="middle" x="178.53" y="-58.4" font-family="Helvetica,Arial,sans-serif" font-size="14.00">detect_green_light</text>
</g>
</g>
</svg>